<svg id="Dumbell" xmlns="http://www.w3.org/2000/svg" width="19.634" height="19.646" viewBox="0 0 19.634 19.646">
  <g id="Group_37" data-name="Group 37" transform="translate(11.634)">
    <g id="Group_36" data-name="Group 36">
      <path id="Path_2131" data-name="Path 2131" d="M311.015,6.035,309.391,4.41l1.221-1.221a.575.575,0,0,0,0-.814L308.977.741a.592.592,0,0,0-.814,0l-1.221,1.221L305.317.337a1.151,1.151,0,0,0-1.628,1.628l5.7,5.7a1.151,1.151,0,0,0,1.628-1.628Z" transform="translate(-303.352 0)"/>
    </g>
  </g>
  <g id="Group_39" data-name="Group 39" transform="translate(0 11.646)">
    <g id="Group_38" data-name="Group 38">
      <path id="Path_2132" data-name="Path 2132" d="M7.819,309.542l-5.7-5.7a1.151,1.151,0,0,0-1.628,1.628L2.118,307.1.9,308.315a.575.575,0,0,0,0,.814l1.635,1.635a.575.575,0,0,0,.814,0l1.218-1.218,1.625,1.625a1.151,1.151,0,0,0,1.628-1.628Z" transform="translate(-0.156 -303.507)"/>
    </g>
  </g>
  <g id="Group_41" data-name="Group 41" transform="translate(6.849 6.849)">
    <g id="Group_40" data-name="Group 40">
      <path id="Path_2133" data-name="Path 2133" d="M182.141,178.492,178.647,182l2.442,2.442,3.494-3.506Z" transform="translate(-178.647 -178.492)"/>
    </g>
  </g>
  <g id="Group_43" data-name="Group 43" transform="translate(8.378 1.628)">
    <g id="Group_42" data-name="Group 42">
      <path id="Path_2134" data-name="Path 2134" d="M227.79,50.089l-7.326-7.326a1.151,1.151,0,0,0-1.628,1.628l7.326,7.326a1.151,1.151,0,0,0,1.628-1.628Z" transform="translate(-218.499 -42.426)"/>
    </g>
  </g>
  <g id="Group_45" data-name="Group 45" transform="translate(1.628 8.39)">
    <g id="Group_44" data-name="Group 44">
      <path id="Path_2135" data-name="Path 2135" d="M51.872,226.317l-7.326-7.326a1.151,1.151,0,0,0-1.628,1.628l7.326,7.326a1.151,1.151,0,1,0,1.628-1.628Z" transform="translate(-42.581 -218.654)"/>
    </g>
  </g>
</svg>
