<svg xmlns="http://www.w3.org/2000/svg" width="31" height="33.172" viewBox="0 0 31 33.172">
  <path id="_" data-name="􀉪" d="M15.518,16.109c-4.017,0-7.411-3.559-7.411-8.128A7.717,7.717,0,0,1,15.518,0a7.681,7.681,0,0,1,7.392,7.944C22.911,12.55,19.517,16.109,15.518,16.109Zm.077,7.684c-3.455,0-7.991-2.783-7.6-2.962a16.4,16.4,0,0,1,7.5-1.475,18.552,18.552,0,0,1,7.893,1.672C23.708,21.174,19.05,23.793,15.6,23.793Zm1.066,1.679-.483-.908a16.506,16.506,0,0,0,7.911-2.844C29.419,24.879,31,27.4,31,30.567c0,1.688-1.046,2.605-4.072,2.605H4.072C1.046,33.172,0,32.255,0,30.567c0-3.175,2.77-7.187,7.207-9.242.234-.108,3.456,3.258,8.293,3.258q.176,0,.35-.005l.5.944a1.086,1.086,0,0,0,.628,2.079v1.029h.79V26.459h-.008a1.086,1.086,0,0,0-1.082-.987Z" fill="#fff" fill-rule="evenodd"/>
</svg>
